<?xml version="1.0" encoding="UTF-8"?>
<svg width="14px" height="16px" viewBox="0 0 14 16" version="1.1" xmlns="http://www.w3.org/2000/svg" xmlns:xlink="http://www.w3.org/1999/xlink">
    <title>ic_compact_play_16</title>
    <g id="Page-1" stroke="none" stroke-width="1" fill="none" fill-rule="evenodd">
        <g id="ic_compact_play_16" fill="#FFFFFF" fill-rule="nonzero">
            <path d="M12.512,7.13649 L2.004,1.00649 C1.7735,0.872487 1.504,0.835487 1.2455,0.903487 C1.03189,0.959703 0.8429,1.08506 0.70803,1.26 C0.57317,1.43493 0.5,1.6496 0.5,1.87049 L0.5,14.13 C0.50025,14.3058 0.54682,14.4785 0.63501,14.6306 C0.7232,14.7827 0.84991,14.9089 1.00238,14.9965 C1.15484,15.0841 1.32769,15.13 1.50353,15.129504 C1.67936,15.1291 1.85198,15.0823 2.004,14.994 L12.5115,8.86399 C12.662,8.77563 12.7868,8.64949 12.8735,8.49805 C12.9602,8.34661 13.0059002,8.17514 13.0059002,8.00063 C13.0059002,7.82612 12.9604,7.65462 12.8738,7.50314 C12.7872,7.35165 12.6624,7.22543 12.512,7.13699 L12.512,7.13649 Z" id="Path"></path>
        </g>
    </g>
</svg>