<?xml version="1.0" encoding="UTF-8"?>
<svg width="24px" height="20px" viewBox="0 0 24 20" version="1.1" xmlns="http://www.w3.org/2000/svg" xmlns:xlink="http://www.w3.org/1999/xlink">
    <title>Shape</title>
    <g id="Page-1" stroke="none" stroke-width="1" fill="none" fill-rule="evenodd">
        <g id="twitter" fill="#FFFFFF" fill-rule="nonzero">
            <path d="M21.2987805,3.1169891 C21.2987805,3.1169891 23.2236691,2.9603901 23.9975491,2.3663196 C23.9975491,2.3663196 23.81143,3.0498695 21.4971409,5.2123804 C21.4971409,5.2123804 22.2759209,16.8849144 10.3934698,19.7433948 C10.3934698,19.7433948 4.3665309,21.0707225 0,17.6877746 C0,17.6877746 4.5722451,18.5254344 7.1436729,15.5948715 C7.1436729,15.5948715 3.8253059,15.6296692 2.777143,12.1423244 C2.777143,12.1423244 4.0310202,12.4207153 4.7755098,12.0727272 C4.7755098,12.0727272 1.0163269,11.2698669 1.084898,7.0492601 C1.084898,7.0492601 2.101224,7.8173198 3.014694,7.6781196 C3.014694,7.6781196 -0.3697958,4.7127599 1.72898,1.0166206 C1.72898,1.0166206 6.2644901,6.5421896 11.88735,6.2140903 C11.7893895,5.8188695 11.7355098,5.4037704 11.7355098,4.9762401 C11.7355099,2.2296104 13.8979598,0 16.5673504,0 C17.9142895,0 19.1338806,0.5692101 20.0106106,1.4864101 C20.6522408,1.4963493 21.9746895,1.3795299 23.2946892,0.4051609 C23.2898007,0.4076405 23.3657093,1.4715004 21.2987805,3.1169891 L21.2987805,3.1169891 Z" id="Shape"></path>
        </g>
    </g>
</svg>